<svg version="1.1" id="Layer_1" xmlns="http://www.w3.org/2000/svg" xmlns:xlink="http://www.w3.org/1999/xlink" x="0px" y="0px"
	 width="100%" viewBox="0 0 610 85" enable-background="new 0 0 610 85" xml:space="preserve">
<path fill="#FBFBFB" opacity="1.000000" stroke="none" 
	d="
M454.000000,86.000000 
	C302.666656,86.000000 151.833328,86.000000 1.000000,86.000000 
	C1.000000,57.666668 1.000000,29.333334 1.000000,1.000000 
	C204.333328,1.000000 407.666656,1.000000 611.000000,1.000000 
	C611.000000,29.333334 611.000000,57.666668 611.000000,86.000000 
	C558.833313,86.000000 506.666656,86.000000 454.000000,86.000000 
M50.500004,12.060398 
	C36.764713,12.060398 23.029427,12.060398 9.389790,12.060398 
	C9.389790,33.155010 9.389790,53.396507 9.389790,73.619942 
	C52.076328,73.619942 94.423569,73.619942 136.676193,73.619942 
	C136.676193,52.958885 136.676193,32.720978 136.676193,12.060414 
	C108.057816,12.060414 79.778908,12.060414 50.500004,12.060398 
M147.163071,61.486435 
	C147.163071,65.574585 147.163071,69.662727 147.163071,73.730453 
	C168.839813,73.730453 189.729813,73.730453 210.742493,73.730453 
	C210.742493,53.093056 210.742493,32.765114 210.742493,12.391048 
	C189.484329,12.391048 168.620071,12.391048 147.163269,12.391048 
	C147.163269,28.639954 147.163269,44.564926 147.163071,61.486435 
M258.148773,62.482140 
	C258.148773,45.876621 258.148773,29.271103 258.148773,12.051076 
	C248.996719,12.051076 240.379318,12.271199 231.781372,11.957841 
	C227.508118,11.802098 225.989044,12.873683 226.058151,17.433685 
	C226.320526,34.748032 226.155884,52.068748 226.177979,69.387047 
	C226.179810,70.825226 226.384491,72.263145 226.494232,73.692383 
	C237.181641,73.692383 247.422546,73.692383 258.149048,73.692383 
	C258.149048,70.061783 258.149048,66.768639 258.148773,62.482140 
M331.140472,39.160442 
	C336.478241,37.881531 338.698334,39.541027 338.834747,45.460987 
	C339.013428,53.214691 338.878571,60.975628 338.878571,68.696350 
	C343.917114,68.696350 348.298798,68.696350 352.909241,68.696350 
	C352.909241,62.498894 352.780365,56.681206 352.962891,50.873302 
	C353.055969,47.910980 353.152069,44.720825 354.307861,42.101925 
	C355.048523,40.423664 357.816498,38.547226 359.507324,38.694366 
	C361.136322,38.836128 363.051117,41.230259 363.908234,43.069263 
	C364.685486,44.737011 364.263367,46.989857 364.271637,48.985138 
	C364.299011,55.595066 364.281982,62.205181 364.281982,68.733086 
	C369.334900,68.733086 373.756683,68.733086 378.310486,68.733086 
	C378.310486,59.224728 378.471619,50.061012 378.265076,40.905598 
	C378.059601,31.799768 372.314301,26.355749 363.426788,27.473724 
	C359.219604,28.002951 355.245422,30.384354 350.716309,32.096470 
	C342.833862,25.473845 336.189972,25.442776 326.214325,32.772675 
	C324.117004,25.784971 318.663208,28.390007 313.798706,28.251272 
	C313.798706,41.907917 313.798706,55.330456 313.798706,68.711861 
	C318.457794,68.711861 322.849823,68.711861 327.527954,68.711861 
	C327.527954,62.200527 327.199646,56.030693 327.655121,49.919281 
	C327.914673,46.436787 329.453674,43.049648 331.140472,39.160442 
M517.039062,48.289249 
	C517.039062,41.684551 517.039062,35.079853 517.039062,28.433258 
	C512.040649,28.433258 507.658936,28.433258 503.119507,28.433258 
	C503.119507,38.122242 502.878601,47.446537 503.195892,56.751801 
	C503.448608,64.164383 507.482727,68.281082 514.776123,69.593338 
	C520.960144,70.705994 526.041748,68.304413 530.476624,64.130508 
	C533.293945,69.712250 534.669861,70.155121 542.767334,68.466805 
	C542.767334,55.072693 542.767334,41.699707 542.767334,28.344650 
	C538.106079,28.344650 533.849731,28.344650 529.062378,28.344650 
	C529.062378,35.417671 529.221130,42.216675 529.017212,49.004787 
	C528.818481,55.619896 526.674255,58.546619 522.566528,58.617393 
	C518.602783,58.685688 517.263123,56.410576 517.039062,48.289249 
M394.027283,45.237736 
	C386.371490,49.361935 383.923828,56.834969 387.881317,64.002281 
	C391.952576,71.375618 401.127258,71.483330 412.838928,64.160889 
	C414.930725,71.007088 420.117981,69.097725 425.051666,68.694061 
	C425.051666,59.105415 425.221588,49.807373 424.988678,40.519428 
	C424.846588,34.853668 421.899261,30.633669 416.452606,28.794716 
	C407.675232,25.831224 399.224823,27.490656 390.621094,30.978144 
	C391.301575,32.765038 391.766663,34.146206 392.349945,35.475506 
	C393.005127,36.968655 393.767090,38.414948 394.456055,39.827152 
	C409.221436,36.214615 410.674500,36.492844 410.517761,42.541912 
	C405.242798,43.371246 400.013031,44.193470 394.027283,45.237736 
M296.362335,28.030416 
	C291.275421,28.259356 286.096405,27.975683 281.128754,28.868320 
	C276.595673,29.682867 273.528320,32.912914 272.974182,37.833149 
	C272.379578,43.113335 274.050110,47.430622 278.887909,50.020111 
	C281.811066,51.584763 284.987305,52.673435 287.930389,54.205383 
	C289.467957,55.005718 290.747406,56.301964 292.949799,57.993603 
	C285.315552,61.150757 279.398712,58.026073 272.882935,56.917259 
	C272.882935,58.972858 273.154205,60.823673 272.829559,62.563278 
	C272.015991,66.922836 274.160706,68.835869 278.078644,68.978798 
	C283.693695,69.183647 289.396301,69.629143 294.923920,68.911613 
	C301.634644,68.040527 305.163574,62.961018 305.159485,56.191631 
	C305.155212,49.151882 300.648926,45.972389 294.880432,43.640469 
	C291.832672,42.408409 288.936768,40.800804 285.057587,38.919037 
	C291.492065,34.949821 296.159454,39.079678 301.298645,39.255642 
	C302.414612,36.468880 303.496155,33.768093 304.738953,30.664518 
	C301.863556,29.707336 299.528809,28.930140 296.362335,28.030416 
M462.821716,12.050227 
	C459.575043,11.542078 459.473755,13.536784 459.486786,15.962237 
	C459.552948,28.284296 459.517273,40.606899 459.517212,52.929314 
	C459.517181,58.215897 459.517181,63.502480 459.517181,68.722694 
	C464.476318,68.722694 468.867950,68.722694 473.127197,68.722694 
	C473.127197,49.656628 473.127197,30.963709 473.127197,12.050316 
	C469.718231,12.050316 466.728760,12.050316 462.821716,12.050227 
M435.145294,25.512035 
	C435.145294,39.927811 435.145294,54.343586 435.145294,68.726135 
	C440.175323,68.726135 444.575714,68.726135 448.943756,68.726135 
	C448.943756,49.781731 448.943756,31.198915 448.943756,12.353043 
	C444.336090,12.353043 439.958282,12.353043 435.145325,12.353043 
	C435.145325,16.596851 435.145325,20.557180 435.145294,25.512035 
M602.045044,12.274469 
	C597.763733,12.274469 593.482422,12.274469 589.021118,12.274469 
	C589.021118,31.285881 589.021118,49.990555 589.021118,68.737129 
	C593.708679,68.737129 598.095703,68.737129 602.631165,68.737129 
	C602.631165,49.924080 602.631165,31.459360 602.045044,12.274469 
M553.528076,48.499779 
	C553.528076,55.267780 553.528076,62.035782 553.528076,68.899963 
	C558.436584,68.899963 562.727600,68.899963 567.537170,68.899963 
	C567.537170,63.764538 567.536316,58.808563 567.537354,53.852592 
	C567.539917,41.842125 568.137695,41.229305 580.133728,40.860123 
	C580.426697,40.851105 580.712646,40.617714 581.366516,40.326668 
	C581.701233,36.422482 582.051636,32.335773 582.407288,28.188332 
	C575.043518,25.595623 570.853516,30.109226 566.389221,34.630054 
	C565.318970,32.224068 564.412354,30.185883 563.587280,28.331062 
	C560.132874,28.331062 557.036743,28.331062 553.528198,28.331062 
	C553.528198,34.901215 553.528198,41.200703 553.528076,48.499779 
z"/>
<path fill="#4B7D5A" opacity="1.000000" stroke="none" 
	d="
M51.000008,12.060406 
	C79.778908,12.060414 108.057816,12.060414 136.676193,12.060414 
	C136.676193,32.720978 136.676193,52.958885 136.676193,73.619942 
	C94.423569,73.619942 52.076328,73.619942 9.389790,73.619942 
	C9.389790,53.396507 9.389790,33.155010 9.389790,12.060398 
	C23.029427,12.060398 36.764713,12.060398 51.000008,12.060406 
z"/>
<path fill="#669073" opacity="1.000000" stroke="none" 
	d="
M147.163177,60.988167 
	C147.163269,44.564926 147.163269,28.639954 147.163269,12.391048 
	C168.620071,12.391048 189.484329,12.391048 210.742493,12.391048 
	C210.742493,32.765114 210.742493,53.093056 210.742493,73.730453 
	C189.729813,73.730453 168.839813,73.730453 147.163071,73.730453 
	C147.163071,69.662727 147.163071,65.574585 147.163177,60.988167 
z"/>
<path fill="#82A58C" opacity="1.000000" stroke="none" 
	d="
M258.148926,62.978813 
	C258.149048,66.768639 258.149048,70.061783 258.149048,73.692383 
	C247.422546,73.692383 237.181641,73.692383 226.494232,73.692383 
	C226.384491,72.263145 226.179810,70.825226 226.177979,69.387047 
	C226.155884,52.068748 226.320526,34.748032 226.058151,17.433685 
	C225.989044,12.873683 227.508118,11.802098 231.781372,11.957841 
	C240.379318,12.271199 248.996719,12.051076 258.148773,12.051076 
	C258.148773,29.271103 258.148773,45.876621 258.148926,62.978813 
z"/>
<path fill="#080808" opacity="1.000000" stroke="none" 
	d="
M330.778503,39.390007 
	C329.453674,43.049648 327.914673,46.436787 327.655121,49.919281 
	C327.199646,56.030693 327.527954,62.200527 327.527954,68.711861 
	C322.849823,68.711861 318.457794,68.711861 313.798706,68.711861 
	C313.798706,55.330456 313.798706,41.907917 313.798706,28.251272 
	C318.663208,28.390007 324.117004,25.784971 326.214325,32.772675 
	C336.189972,25.442776 342.833862,25.473845 350.716309,32.096470 
	C355.245422,30.384354 359.219604,28.002951 363.426788,27.473724 
	C372.314301,26.355749 378.059601,31.799768 378.265076,40.905598 
	C378.471619,50.061012 378.310486,59.224728 378.310486,68.733086 
	C373.756683,68.733086 369.334900,68.733086 364.281982,68.733086 
	C364.281982,62.205181 364.299011,55.595066 364.271637,48.985138 
	C364.263367,46.989857 364.685486,44.737011 363.908234,43.069263 
	C363.051117,41.230259 361.136322,38.836128 359.507324,38.694366 
	C357.816498,38.547226 355.048523,40.423664 354.307861,42.101925 
	C353.152069,44.720825 353.055969,47.910980 352.962891,50.873302 
	C352.780365,56.681206 352.909241,62.498894 352.909241,68.696350 
	C348.298798,68.696350 343.917114,68.696350 338.878571,68.696350 
	C338.878571,60.975628 339.013428,53.214691 338.834747,45.460987 
	C338.698334,39.541027 336.478241,37.881531 330.778503,39.390007 
z"/>
<path fill="#0A0A0A" opacity="1.000000" stroke="none" 
	d="
M517.039062,48.759789 
	C517.263123,56.410576 518.602783,58.685688 522.566528,58.617393 
	C526.674255,58.546619 528.818481,55.619896 529.017212,49.004787 
	C529.221130,42.216675 529.062378,35.417671 529.062378,28.344650 
	C533.849731,28.344650 538.106079,28.344650 542.767334,28.344650 
	C542.767334,41.699707 542.767334,55.072693 542.767334,68.466805 
	C534.669861,70.155121 533.293945,69.712250 530.476624,64.130508 
	C526.041748,68.304413 520.960144,70.705994 514.776123,69.593338 
	C507.482727,68.281082 503.448608,64.164383 503.195892,56.751801 
	C502.878601,47.446537 503.119507,38.122242 503.119507,28.433258 
	C507.658936,28.433258 512.040649,28.433258 517.039062,28.433258 
	C517.039062,35.079853 517.039062,41.684551 517.039062,48.759789 
z"/>
<path fill="#090909" opacity="1.000000" stroke="none" 
	d="
M394.405273,45.126717 
	C400.013031,44.193470 405.242798,43.371246 410.517761,42.541912 
	C410.674500,36.492844 409.221436,36.214615 394.456055,39.827152 
	C393.767090,38.414948 393.005127,36.968655 392.349945,35.475506 
	C391.766663,34.146206 391.301575,32.765038 390.621094,30.978144 
	C399.224823,27.490656 407.675232,25.831224 416.452606,28.794716 
	C421.899261,30.633669 424.846588,34.853668 424.988678,40.519428 
	C425.221588,49.807373 425.051666,59.105415 425.051666,68.694061 
	C420.117981,69.097725 414.930725,71.007088 412.838928,64.160889 
	C401.127258,71.483330 391.952576,71.375618 387.881317,64.002281 
	C383.923828,56.834969 386.371490,49.361935 394.405273,45.126717 
M400.453430,55.558117 
	C400.541321,59.488056 403.095673,60.442257 406.234436,59.746262 
	C410.626434,58.772377 411.925385,55.697002 410.816986,51.170055 
	C406.914276,51.234978 402.696045,49.847740 400.453430,55.558117 
z"/>
<path fill="#0A0A0A" opacity="1.000000" stroke="none" 
	d="
M296.778198,28.091679 
	C299.528809,28.930140 301.863556,29.707336 304.738953,30.664518 
	C303.496155,33.768093 302.414612,36.468880 301.298645,39.255642 
	C296.159454,39.079678 291.492065,34.949821 285.057587,38.919037 
	C288.936768,40.800804 291.832672,42.408409 294.880432,43.640469 
	C300.648926,45.972389 305.155212,49.151882 305.159485,56.191631 
	C305.163574,62.961018 301.634644,68.040527 294.923920,68.911613 
	C289.396301,69.629143 283.693695,69.183647 278.078644,68.978798 
	C274.160706,68.835869 272.015991,66.922836 272.829559,62.563278 
	C273.154205,60.823673 272.882935,58.972858 272.882935,56.917259 
	C279.398712,58.026073 285.315552,61.150757 292.949799,57.993603 
	C290.747406,56.301964 289.467957,55.005718 287.930389,54.205383 
	C284.987305,52.673435 281.811066,51.584763 278.887909,50.020111 
	C274.050110,47.430622 272.379578,43.113335 272.974182,37.833149 
	C273.528320,32.912914 276.595673,29.682867 281.128754,28.868320 
	C286.096405,27.975683 291.275421,28.259356 296.778198,28.091679 
z"/>
<path fill="#0D0D0D" opacity="1.000000" stroke="none" 
	d="
M463.280518,12.050272 
	C466.728760,12.050316 469.718231,12.050316 473.127197,12.050316 
	C473.127197,30.963709 473.127197,49.656628 473.127197,68.722694 
	C468.867950,68.722694 464.476318,68.722694 459.517181,68.722694 
	C459.517181,63.502480 459.517181,58.215897 459.517212,52.929314 
	C459.517273,40.606899 459.552948,28.284296 459.486786,15.962237 
	C459.473755,13.536784 459.575043,11.542078 463.280518,12.050272 
z"/>
<path fill="#0A0A0A" opacity="1.000000" stroke="none" 
	d="
M435.145325,25.014771 
	C435.145325,20.557180 435.145325,16.596851 435.145325,12.353043 
	C439.958282,12.353043 444.336090,12.353043 448.943756,12.353043 
	C448.943756,31.198915 448.943756,49.781731 448.943756,68.726135 
	C444.575714,68.726135 440.175323,68.726135 435.145294,68.726135 
	C435.145294,54.343586 435.145294,39.927811 435.145325,25.014771 
z"/>
<path fill="#0A0A0A" opacity="1.000000" stroke="none" 
	d="
M602.338135,12.634556 
	C602.631165,31.459360 602.631165,49.924080 602.631165,68.737129 
	C598.095703,68.737129 593.708679,68.737129 589.021118,68.737129 
	C589.021118,49.990555 589.021118,31.285881 589.021118,12.274469 
	C593.482422,12.274469 597.763733,12.274469 602.338135,12.634556 
z"/>
<path fill="#0B0B0B" opacity="1.000000" stroke="none" 
	d="
M553.528137,47.999985 
	C553.528198,41.200703 553.528198,34.901215 553.528198,28.331062 
	C557.036743,28.331062 560.132874,28.331062 563.587280,28.331062 
	C564.412354,30.185883 565.318970,32.224068 566.389221,34.630054 
	C570.853516,30.109226 575.043518,25.595623 582.407288,28.188332 
	C582.051636,32.335773 581.701233,36.422482 581.366516,40.326668 
	C580.712646,40.617714 580.426697,40.851105 580.133728,40.860123 
	C568.137695,41.229305 567.539917,41.842125 567.537354,53.852592 
	C567.536316,58.808563 567.537170,63.764538 567.537170,68.899963 
	C562.727600,68.899963 558.436584,68.899963 553.528076,68.899963 
	C553.528076,62.035782 553.528076,55.267780 553.528137,47.999985 
z"/>
<path fill="#E9E9E9" opacity="1.000000" stroke="none" 
	d="
M400.503143,55.183372 
	C402.696045,49.847740 406.914276,51.234978 410.816986,51.170055 
	C411.925385,55.697002 410.626434,58.772377 406.234436,59.746262 
	C403.095673,60.442257 400.541321,59.488056 400.503143,55.183372 
z"/>
</svg>